HIERARCHY
ROOT hip
{
  OFFSET 0 0 0
  CHANNELS 6 Xposition Yposition Zposition Zrotation Yrotation Xrotation
  JOINT abdomen
  {
    OFFSET 0 20.6881 -0.73152
    CHANNELS 3 Zrotation Xrotation Yrotation
    JOINT chest
    {
      OFFSET 0 11.7043 -0.48768
      CHANNELS 3 Zrotation Xrotation Yrotation
      JOINT neck
      {
        OFFSET 0 22.1894 -2.19456
        CHANNELS 3 Zrotation Xrotation Yrotation
        JOINT head
        {
          OFFSET -0.24384 7.07133 1.2192
          CHANNELS 3 Zrotation Xrotation Yrotation
          JOINT leftEye
          {
            OFFSET 4.14528 8.04674 8.04672
            CHANNELS 3 Zrotation Xrotation Yrotation
            End Site
            {
              OFFSET 1 0 0
            }
          }
          JOINT rightEye
          {
            OFFSET -3.6576 8.04674 8.04672
            CHANNELS 3 Zrotation Xrotation Yrotation
            End Site
            {
              OFFSET 1 0 0
            }
          }
        }
      }
      JOINT rCollar
      {
        OFFSET -2.68224 19.2634 -4.8768
        CHANNELS 3 Zrotation Xrotation Yrotation
        JOINT rShldr
        {
          OFFSET -8.77824 -1.95073 1.46304
          CHANNELS 3 Zrotation Xrotation Yrotation
          JOINT rForeArm
          {
            OFFSET -28.1742 -1.7115 0.48768
            CHANNELS 3 Zrotation Xrotation Yrotation
            JOINT rHand
            {
              OFFSET -22.5879 0.773209 7.07136
              CHANNELS 3 Zrotation Xrotation Yrotation
              JOINT rThumb1
              {
                OFFSET -1.2192 -0.487915 3.41376
                CHANNELS 3 Zrotation Xrotation Yrotation
                JOINT rThumb2
                {
                  OFFSET -3.37035 -0.52449 3.41376
                  CHANNELS 3 Zrotation Xrotation Yrotation
                  End Site
                  {
                    OFFSET -1.78271 -1.18214 1.43049
                  }
                }
              }
              JOINT rIndex1
              {
                OFFSET -7.75947 0.938293 5.60832
                CHANNELS 3 Zrotation Xrotation Yrotation
                JOINT rIndex2
                {
                  OFFSET -2.54057 -0.884171 1.56538
                  CHANNELS 3 Zrotation Xrotation Yrotation
                  End Site
                  {
                    OFFSET -1.62519 -0.234802 1.16502
                  }
                }
              }
              JOINT rMid1
              {
                OFFSET -8.24714 1.18213 3.41376
                CHANNELS 3 Zrotation Xrotation Yrotation
                JOINT rMid2
                {
                  OFFSET -3.10165 -0.590103 1.0647
                  CHANNELS 3 Zrotation Xrotation Yrotation
                  End Site
                  {
                    OFFSET -2.48547 -0.328903 0.83742
                  }
                }
              }
              JOINT rRing1
              {
                OFFSET -8.82822 0.546677 1.51678
                CHANNELS 3 Zrotation Xrotation Yrotation
                JOINT rRing2
                {
                  OFFSET -2.60934 -0.819778 -0.0198488
                  CHANNELS 3 Zrotation Xrotation Yrotation
                  End Site
                  {
                    OFFSET -2.33842 -0.294052 0.168128
                  }
                }
              }
              JOINT rPinky1
              {
                OFFSET -8.27202 -0.0477905 -0.4584
                CHANNELS 3 Zrotation Xrotation Yrotation
                JOINT rPinky2
                {
                  OFFSET -1.82734 -0.647385 -0.700984
                  CHANNELS 3 Zrotation Xrotation Yrotation
                  End Site
                  {
                    OFFSET -1.69225 -0.51767 -0.607171
                  }
                }
              }
            }
          }
        }
      }
      JOINT lCollar
      {
        OFFSET 2.68224 19.2634 -4.8768
        CHANNELS 3 Zrotation Xrotation Yrotation
        JOINT lShldr
        {
          OFFSET 8.77824 -1.95073 1.46304
          CHANNELS 3 Zrotation Xrotation Yrotation
          JOINT lForeArm
          {
            OFFSET 28.1742 -1.7115 0.48768
            CHANNELS 3 Zrotation Xrotation Yrotation
            JOINT lHand
            {
              OFFSET 22.5879 0.773209 7.07136
              CHANNELS 3 Zrotation Xrotation Yrotation
              JOINT lThumb1
              {
                OFFSET 1.2192 -0.487915 3.41376
                CHANNELS 3 Zrotation Xrotation Yrotation
                JOINT lThumb2
                {
                  OFFSET 3.37035 -0.52449 3.41376
                  CHANNELS 3 Zrotation Xrotation Yrotation
                  End Site
                  {
                    OFFSET 1.78271 -1.18214 1.43049
                  }
                }
              }
              JOINT lIndex1
              {
                OFFSET 7.75947 0.938293 5.60832
                CHANNELS 3 Zrotation Xrotation Yrotation
                JOINT lIndex2
                {
                  OFFSET 2.54057 -0.884171 1.56538
                  CHANNELS 3 Zrotation Xrotation Yrotation
                  End Site
                  {
                    OFFSET 1.62519 -0.234802 1.16502
                  }
                }
              }
              JOINT lMid1
              {
                OFFSET 8.24714 1.18213 3.41376
                CHANNELS 3 Zrotation Xrotation Yrotation
                JOINT lMid2
                {
                  OFFSET 3.10165 -0.590103 1.0647
                  CHANNELS 3 Zrotation Xrotation Yrotation
                  End Site
                  {
                    OFFSET 2.48547 -0.328903 0.83742
                  }
                }
              }
              JOINT lRing1
              {
                OFFSET 8.82822 0.546677 1.51678
                CHANNELS 3 Zrotation Xrotation Yrotation
                JOINT lRing2
                {
                  OFFSET 2.60934 -0.819778 -0.0198488
                  CHANNELS 3 Zrotation Xrotation Yrotation
                  End Site
                  {
                    OFFSET 2.33842 -0.294052 0.168128
                  }
                }
              }
              JOINT lPinky1
              {
                OFFSET 8.27202 -0.0477905 -0.4584
                CHANNELS 3 Zrotation Xrotation Yrotation
                JOINT lPinky2
                {
                  OFFSET 1.82734 -0.647385 -0.700984
                  CHANNELS 3 Zrotation Xrotation Yrotation
                  End Site
                  {
                    OFFSET 1.69225 -0.51767 -0.607171
                  }
                }
              }
            }
          }
        }
      }
    }
  }
  JOINT rButtock
  {
    OFFSET -8.77824 4.35084 1.2192
    CHANNELS 3 Zrotation Xrotation Yrotation
    JOINT rThigh
    {
      OFFSET 0 -1.70687 -2.19456
      CHANNELS 3 Zrotation Xrotation Yrotation
      JOINT rShin
      {
        OFFSET 0 -36.8199 0.73152
        CHANNELS 3 Zrotation Xrotation Yrotation
        JOINT rFoot
        {
          OFFSET 0.73152 -45.1104 -5.12064
          CHANNELS 3 Zrotation Xrotation Yrotation
          End Site
          {
            OFFSET -1.1221 -3.69964 12.103
          }
        }
      }
    }
  }
  JOINT lButtock
  {
    OFFSET 8.77824 4.35084 1.2192
    CHANNELS 3 Zrotation Xrotation Yrotation
    JOINT lThigh
    {
      OFFSET 0 -1.70687 -2.19456
      CHANNELS 3 Zrotation Xrotation Yrotation
      JOINT lShin
      {
        OFFSET 0 -36.8199 0.73152
        CHANNELS 3 Zrotation Xrotation Yrotation
        JOINT lFoot
        {
          OFFSET -0.73152 -45.1104 -5.12064
          CHANNELS 3 Zrotation Xrotation Yrotation
          End Site
          {
            OFFSET 1.1221 -3.69964 12.103
          }
        }
      }
    }
  }
}
MOTION
Frames:	9
Frame Time:	0.00833333
-3.39147 81.4229 29.9701 -3.6058 -20.8781 -1.4169 -1.72129 23.5149 1.49285 0.855506 -4.26708 0.293684 11.1244 2.0919 3.62992 -5.98711 -17.6694 3.56541 -0.0 0.0 0.0 -0.0 0.0 0.0 -1.19287e-13 -1.145e-13 -6.26172e-15 49.4592 76.2022 36.9102 -23.9712 -49.4337 103.376 -0.0641802 7.20976 1.0187 4.32107e-10 3.80318e-09 -1.16459e-09 7.41116e-10 6.55873e-09 -2.01653e-09 4.32111e-10 3.80315e-09 -1.1646e-09 7.73091 5.47488 0.417314 4.32107e-10 3.80315e-09 -1.16459e-09 2.90554 0.965183 0.102902 4.32116e-10 3.80315e-09 -1.16459e-09 10.2786 0.731801 0.0259123 4.32103e-10 3.80317e-09 -1.16458e-09 2.22167 -0.733487 -0.20892 -1.19263e-13 -1.145e-13 -6.4605e-15 -91.4696 56.3414 8.1032 25.1301 -47.7891 -99.4803 0.123407 -9.96683 1.41519 -9.51517e-10 3.83052e-09 7.6561e-10 -1.65214e-09 6.61288e-09 1.32028e-09 -9.51525e-10 3.83055e-09 7.65633e-10 -7.73091 5.47488 -0.417314 -9.51517e-10 3.83053e-09 7.6561e-10 -2.90554 0.965183 -0.102902 -9.51526e-10 3.83053e-09 7.65614e-10 -10.2786 0.731801 -0.0259123 -9.5151e-10 3.83053e-09 7.65614e-10 -2.22167 -0.733487 0.20892 -2.03217e-16 0.0 -3.88251e-19 -1.86733 -11.7106 13.4798 -0.0846218 20.0382 0.368608 -1.50513 -10.6284 -6.00464 2.03217e-16 0.0 3.88251e-19 11.5942 -15.3002 8.94179 0.221907 37.8599 -1.01358 6.19303 -19.9745 15.4926
-3.37644 81.4198 29.9431 -3.5846 -20.6227 -1.4797 -1.65171 23.5626 1.61837 0.782822 -4.17642 0.329475 11.0077 2.10605 3.68816 -5.82736 -17.8968 3.72827 -0.0 0.0 0.0 -0.0 0.0 0.0 -1.2972e-13 -7.99608e-14 2.10472e-13 49.2737 76.3085 37.2187 -23.843 -49.5956 103.777 -0.0606379 7.01836 0.991359 -4.75838e-11 -8.59226e-11 5.66808e-11 -8.97961e-11 -1.84175e-10 1.01679e-10 -4.75798e-11 -8.59528e-11 5.6671e-11 7.73091 5.47488 0.417314 -4.7584e-11 -8.59481e-11 5.66761e-11 2.90554 0.965183 0.102902 -4.7576e-11 -8.59544e-11 5.66804e-11 10.2786 0.731801 0.0259123 -4.75888e-11 -8.59269e-11 5.66869e-11 2.22167 -0.733487 -0.20892 -1.29692e-13 -7.99611e-14 2.10262e-13 -90.78 56.8621 7.14777 25.0905 -47.8518 -99.6227 0.122809 -9.9431 1.41175 -1.18012e-09 3.73009e-09 6.44404e-10 -2.05029e-09 6.43978e-09 1.11052e-09 -1.18012e-09 3.73011e-09 6.44425e-10 -7.73091 5.47488 -0.417314 -1.18012e-09 3.7301e-09 6.44405e-10 -2.90554 0.965183 -0.102902 -1.18013e-09 3.73009e-09 6.44406e-10 -10.2786 0.731801 -0.0259123 -1.18011e-09 3.7301e-09 6.44406e-10 -2.22167 -0.733487 0.20892 -2.03217e-16 0.0 -3.88251e-19 -1.88084 -11.667 13.364 -0.0847069 20.0472 0.369828 -1.54492 -10.7243 -6.12527 2.03217e-16 0.0 3.88251e-19 11.5819 -15.4048 8.7948 0.223166 37.904 -1.01219 6.13211 -19.9047 15.3854
-3.36104 81.4178 29.9132 -3.5868 -20.3624 -1.5233 -1.57953 23.6019 1.72466 0.747682 -4.05976 0.361313 10.8329 2.15182 3.73564 -5.59887 -18.1506 3.89976 -0.0 0.0 0.0 -0.0 0.0 0.0 -1.32402e-13 -2.54436e-14 5.24521e-13 48.9241 76.4076 37.679 -23.7172 -49.7519 104.167 -0.055955 6.74931 0.95298 -5.71972e-10 -5.38715e-09 1.97542e-09 -9.98773e-10 -9.3775e-09 3.42807e-09 -5.71968e-10 -5.38718e-09 1.97541e-09 7.73091 5.47488 0.417314 -5.71971e-10 -5.38717e-09 1.97541e-09 2.90554 0.965183 0.102902 -5.71965e-10 -5.38718e-09 1.97541e-09 10.2786 0.731801 0.0259123 -5.71977e-10 -5.38715e-09 1.97542e-09 2.22167 -0.733487 -0.20892 -1.3236e-13 -2.54447e-14 5.24288e-13 -90.0953 57.3524 6.18261 25.0414 -47.9285 -99.7981 0.121889 -9.9063 1.40642 -1.50209e-09 4.19767e-09 7.37905e-10 -2.61323e-09 7.24998e-09 1.27219e-09 -1.5021e-09 4.19768e-09 7.37923e-10 -7.73091 5.47488 -0.417314 -1.50209e-09 4.19768e-09 7.37908e-10 -2.90554 0.965183 -0.102902 -1.50209e-09 4.19766e-09 7.37905e-10 -10.2786 0.731801 -0.0259123 -1.50208e-09 4.19768e-09 7.37904e-10 -2.22167 -0.733487 0.20892 -2.03217e-16 0.0 -3.88251e-19 -1.88383 -11.5991 13.2718 -0.0849092 20.0285 0.370579 -1.58758 -10.8292 -6.25263 2.03217e-16 0.0 3.88251e-19 11.5729 -15.4962 8.63784 0.224395 37.9445 -1.0107 6.0737 -19.8403 15.2799
-3.33798 81.4172 29.8657 -3.5917 -20.0666 -1.5688 -1.5134 23.6441 1.81424 0.726246 -3.94002 0.388617 10.6514 2.17015 3.76942 -5.385 -18.3565 4.04105 -0.0 0.0 0.0 -0.0 0.0 0.0 -1.26734e-13 2.43024e-14 8.01396e-13 48.5142 76.4985 38.1946 -23.5902 -49.9068 104.556 -0.0517873 6.49008 0.916063 -9.61366e-10 -9.98867e-09 3.75209e-09 -1.67407e-09 -1.73578e-08 6.50749e-09 -9.61362e-10 -9.98871e-09 3.75208e-09 7.73091 5.47488 0.417314 -9.61365e-10 -9.98869e-09 3.75208e-09 2.90554 0.965183 0.102902 -9.61359e-10 -9.98871e-09 3.75208e-09 10.2786 0.731801 0.0259123 -9.61371e-10 -9.98868e-09 3.75208e-09 2.22167 -0.733487 -0.20892 -1.26682e-13 2.43012e-14 8.01145e-13 -89.4221 57.8196 5.22669 24.9886 -48.0097 -99.9854 0.120922 -9.86738 1.40078 -1.79317e-09 4.8497e-09 9.20141e-10 -3.12277e-09 8.37902e-09 1.58723e-09 -1.79318e-09 4.8497e-09 9.20156e-10 -7.73091 5.47488 -0.417314 -1.79317e-09 4.8497e-09 9.20147e-10 -2.90554 0.965183 -0.102902 -1.79318e-09 4.84967e-09 9.20139e-10 -10.2786 0.731801 -0.0259123 -1.79317e-09 4.8497e-09 9.20137e-10 -2.22167 -0.733487 0.20892 -2.03217e-16 0.0 -3.88251e-19 -1.89647 -11.5251 13.1879 -0.0851214 20.0022 0.371167 -1.62985 -10.933 -6.37711 2.03217e-16 0.0 3.88251e-19 11.5475 -15.5779 8.47267 0.225518 37.9808 -1.00931 6.02211 -19.7822 15.1864
-3.31306 81.4168 29.8125 -3.6305 -19.7552 -1.5973 -1.46202 23.7006 1.88965 0.694728 -3.84012 0.410809 10.5149 2.10201 3.78655 -5.27036 -18.4402 4.11287 -0.0 0.0 0.0 -0.0 0.0 0.0 -1.12113e-13 4.45282e-14 9.06607e-13 48.1508 76.5811 38.6662 -23.4586 -50.0644 104.955 -0.0493677 6.32815 0.893034 -1.03608e-09 -1.17787e-08 4.54716e-09 -1.80396e-09 -2.04615e-08 7.8848e-09 -1.03607e-09 -1.17787e-08 4.54715e-09 7.73091 5.47488 0.417314 -1.03607e-09 -1.17787e-08 4.54715e-09 2.90554 0.965183 0.102902 -1.03607e-09 -1.17787e-08 4.54715e-09 10.2786 0.731801 0.0259123 -1.03608e-09 -1.17787e-08 4.54715e-09 2.22167 -0.733487 -0.20892 -1.12074e-13 4.45282e-14 9.06359e-13 -88.7675 58.2718 4.29919 24.9382 -48.0865 -100.163 0.120179 -9.83725 1.39642 -1.92911e-09 5.30261e-09 1.06514e-09 -3.36078e-09 9.16242e-09 1.83757e-09 -1.92912e-09 5.30261e-09 1.06515e-09 -7.73091 5.47488 -0.417314 -1.92911e-09 5.30261e-09 1.06515e-09 -2.90554 0.965183 -0.102902 -1.92912e-09 5.30259e-09 1.06514e-09 -10.2786 0.731801 -0.0259123 -1.92911e-09 5.30261e-09 1.06513e-09 -2.22167 -0.733487 0.20892 -2.03217e-16 0.0 -3.88251e-19 -1.93902 -11.4635 13.097 -0.0852373 19.989 0.3719 -1.66826 -11.0257 -6.48906 2.03217e-16 0.0 3.88251e-19 11.4856 -15.6537 8.30107 0.226463 38.0124 -1.00823 5.98157 -19.7311 15.1152
-3.27657 81.4155 29.7675 -3.6962 -19.4707 -1.6042 -1.43839 23.7802 1.95793 0.646624 -3.76051 0.42876 10.4486 1.88051 3.77402 -5.30955 -18.3124 4.0664 -0.0 0.0 0.0 -0.0 0.0 0.0 -7.94143e-14 1.64227e-14 7.43337e-13 47.8967 76.6437 39.0354 -23.3225 -50.2235 105.362 -0.0489055 6.29364 0.888134 -5.52558e-10 -9.01099e-09 3.8181e-09 -9.6669e-10 -1.56605e-08 6.61879e-09 -5.52552e-10 -9.01101e-09 3.81809e-09 7.73091 5.47488 0.417314 -5.52557e-10 -9.01099e-09 3.81809e-09 2.90554 0.965183 0.102902 -5.52553e-10 -9.01102e-09 3.81809e-09 10.2786 0.731801 0.0259123 -5.52563e-10 -9.01099e-09 3.8181e-09 2.22167 -0.733487 -0.20892 -7.94265e-14 1.64269e-14 7.43129e-13 -88.1452 58.7041 3.41915 24.8931 -48.1546 -100.321 0.119586 -9.81315 1.39293 -1.85364e-09 5.6723e-09 1.22738e-09 -3.22859e-09 9.79947e-09 2.11697e-09 -1.85365e-09 5.6723e-09 1.22739e-09 -7.73091 5.47488 -0.417314 -1.85364e-09 5.6723e-09 1.22738e-09 -2.90554 0.965183 -0.102902 -1.85365e-09 5.67227e-09 1.22737e-09 -10.2786 0.731801 -0.0259123 -1.85364e-09 5.6723e-09 1.22737e-09 -2.22167 -0.733487 0.20892 -2.03217e-16 0.0 -3.88251e-19 -2.02885 -11.3929 12.9972 -0.0851239 19.98 0.372527 -1.70016 -11.0985 -6.58192 2.03217e-16 0.0 3.88251e-19 11.366 -15.6944 8.11717 0.226986 38.0283 -1.00747 5.96178 -19.6898 15.0882
-3.2247 81.4109 29.7218 -3.6814 -19.2299 -1.6136 -1.43433 23.875 2.0156 0.594731 -3.69085 0.442441 10.4208 1.55418 3.73759 -5.44646 -18.0359 3.93551 -0.0 0.0 0.0 -0.0 0.0 0.0 -3.19475e-14 -4.27441e-14 4.03632e-13 47.6863 76.6905 39.3627 -23.1833 -50.3826 105.773 -0.0496016 6.33764 0.894395 3.28143e-10 -3.20623e-09 2.11888e-09 5.58597e-10 -5.59252e-09 3.66992e-09 3.28151e-10 -3.20624e-09 2.11887e-09 7.73091 5.47488 0.417314 3.28143e-10 -3.20624e-09 2.11887e-09 2.90554 0.965183 0.102902 3.28147e-10 -3.20625e-09 2.11887e-09 10.2786 0.731801 0.0259123 3.28137e-10 -3.20624e-09 2.11888e-09 2.22167 -0.733487 -0.20892 -3.20354e-14 -4.27335e-14 4.03489e-13 -87.5529 59.1159 2.57592 24.8497 -48.2195 -100.472 0.119046 -9.79114 1.38975 -1.64073e-09 6.09059e-09 1.44468e-09 -2.85607e-09 1.05191e-08 2.49109e-09 -1.64074e-09 6.09061e-09 1.4447e-09 -7.73091 5.47488 -0.417314 -1.64073e-09 6.0906e-09 1.44469e-09 -2.90554 0.965183 -0.102902 -1.64073e-09 6.09058e-09 1.44468e-09 -10.2786 0.731801 -0.0259123 -1.64072e-09 6.0906e-09 1.44468e-09 -2.22167 -0.733487 0.20892 -2.03217e-16 0.0 -3.88251e-19 -2.15111 -11.3123 12.8959 -0.0848728 19.9691 0.372994 -1.72776 -11.1589 -6.66213 2.03217e-16 0.0 3.88251e-19 11.2048 -15.708 7.92221 0.227203 38.0324 -1.00692 5.95745 -19.6571 15.0934
-3.15141 81.4099 29.7 -3.5467 -19.0518 -1.7169 -1.42671 23.9712 2.04948 0.544255 -3.6379 0.449921 10.3983 1.23707 3.70237 -5.60101 -17.7644 3.80439 -0.0 0.0 0.0 -0.0 0.0 0.0 1.2239e-14 -1.036e-13 3.62961e-14 47.434 76.7455 39.7282 -23.0386 -50.5451 106.196 -0.0510138 6.42907 0.907403 1.17884e-09 2.84713e-09 2.54719e-10 2.03236e-09 4.9075e-09 4.35571e-10 1.17885e-09 2.84715e-09 2.54706e-10 7.73091 5.47488 0.417314 1.17884e-09 2.84713e-09 2.54711e-10 2.90554 0.965183 0.102902 1.17884e-09 2.84713e-09 2.5471e-10 10.2786 0.731801 0.0259123 1.17883e-09 2.84713e-09 2.54719e-10 2.22167 -0.733487 -0.20892 1.20744e-14 -1.03584e-13 3.62153e-14 -86.9704 59.5215 1.74223 24.8045 -48.2868 -100.629 0.118782 -9.78041 1.38819 -1.36152e-09 6.19789e-09 1.56611e-09 -2.36776e-09 1.07011e-08 2.69973e-09 -1.36153e-09 6.19791e-09 1.56613e-09 -7.73091 5.47488 -0.417314 -1.36152e-09 6.1979e-09 1.56611e-09 -2.90554 0.965183 -0.102902 -1.36153e-09 6.19789e-09 1.56611e-09 -10.2786 0.731801 -0.0259123 -1.36151e-09 6.1979e-09 1.5661e-09 -2.22167 -0.733487 0.20892 -2.03217e-16 0.0 -3.88251e-19 -2.27798 -11.2704 12.7919 -0.0847162 19.9804 0.373908 -1.75496 -11.221 -6.7395 2.03217e-16 0.0 3.88251e-19 11.0382 -15.7541 7.72849 0.227576 38.0466 -1.00667 5.95041 -19.6279 15.0905
-3.06361 81.4102 29.6947 -3.3812 -18.9225 -1.872 -1.39225 24.055 2.04629 0.500402 -3.60846 0.449267 10.3487 1.04333 3.69331 -5.69582 -17.6521 3.75621 -0.0 0.0 0.0 -0.0 0.0 0.0 3.50961e-14 -1.36773e-13 -2.09867e-13 47.0495 76.8318 40.2158 -22.8855 -50.7139 106.639 -0.0526963 6.53687 0.922745 1.57235e-09 6.36068e-09 -9.69179e-10 2.71504e-09 1.10045e-08 -1.68689e-09 1.57236e-09 6.3607e-09 -9.69191e-10 7.73091 5.47488 0.417314 1.57235e-09 6.36067e-09 -9.69185e-10 2.90554 0.965183 0.102902 1.57235e-09 6.36067e-09 -9.69187e-10 10.2786 0.731801 0.0259123 1.57234e-09 6.36068e-09 -9.69175e-10 2.22167 -0.733487 -0.20892 3.48783e-14 -1.36756e-13 -2.09917e-13 -86.3745 59.9348 0.888114 24.7537 -48.3622 -100.804 0.119016 -9.79012 1.3896 -1.08716e-09 5.63458e-09 1.44071e-09 -1.88823e-09 9.72567e-09 2.48264e-09 -1.08716e-09 5.6346e-09 1.44073e-09 -7.73091 5.47488 -0.417314 -1.08715e-09 5.63458e-09 1.44071e-09 -2.90554 0.965183 -0.102902 -1.08716e-09 5.63458e-09 1.44071e-09 -10.2786 0.731801 -0.0259123 -1.08715e-09 5.63458e-09 1.4407e-09 -2.22167 -0.733487 0.20892 -2.03217e-16 0.0 -3.88251e-19 -2.382 -11.3163 12.6837 -0.0848891 20.0381 0.375874 -1.78582 -11.2987 -6.82391 2.03217e-16 0.0 3.88251e-19 10.9017 -15.8921 7.54812 0.228567 38.0925 -1.00677 5.92259 -19.5967 15.0396
